<mxfile host="app.diagrams.net" modified="2022-12-06T07:45:49.044Z" agent="5.0 (X11; Linux x86_64) AppleWebKit/537.36 (KHTML, like Gecko) Chrome/108.0.0.0 Safari/537.36" etag="OgpnkN4q9Vi8KgBgPWa6" version="20.6.0" type="github">
  <diagram name="Page-1" id="c4acf3e9-155e-7222-9cf6-157b1a14988f">
    <mxGraphModel dx="794" dy="493" grid="1" gridSize="10" guides="1" tooltips="1" connect="1" arrows="1" fold="1" page="1" pageScale="1" pageWidth="850" pageHeight="1100" background="none" math="0" shadow="0">
      <root>
        <mxCell id="0" />
        <mxCell id="1" parent="0" />
        <mxCell id="MUdtubms9sKat610m0NK-1" value="Blind" style="shape=umlActor;verticalLabelPosition=bottom;verticalAlign=top;html=1;" vertex="1" parent="1">
          <mxGeometry x="80" y="300" width="30" height="60" as="geometry" />
        </mxCell>
      </root>
    </mxGraphModel>
  </diagram>
</mxfile>
